<svg xmlns="http://www.w3.org/2000/svg" xmlns:xlink="http://www.w3.org/1999/xlink" id="Layer_4" x="0px" y="0px" viewBox="0 0 228.24 56.69" style="enable-background:new 0 0 228.24 56.69;" xml:space="preserve"><style type="text/css">	.st0{fill:#E71E00;}</style><g>	<g>		<path class="st0" d="M200.83,38.25c-7.37,1.18-21.32,1.41-26.88,1.45c0.2,0.47,0.42,0.92,0.65,1.38l0,0   c6.61-0.03,22.35-0.23,29.81-1.33c3.99-0.59,10.51-1.27,15.42-2.5c4.61-1.15,6.8-2.18,7.77-2.75c0.34-1.52,0.56-3.08,0.64-4.68   C225.5,31.66,210.12,36.76,200.83,38.25z M201,34c17.98-7.32,24.19-11.4,26.27-13.13c-0.54-1.97-1.28-3.85-2.21-5.63   c0,0.09,0.02,0.17,0.02,0.26C220.61,20.42,208,27.92,208,27.92s-7.33,4.83-16.5,7.17c-7.24,1.84-15.47,1.88-18.6,1.81   c0.15,0.48,0.31,0.95,0.49,1.41C178.08,38.34,191.04,38.06,201,34z M195.5,29c9.82-6.72,15.67-12.94,18.33-16.75   c2.9-4.15,3.65-5.63,3.83-6.01c-0.12-0.1-0.23-0.2-0.35-0.29C212.51,2.22,206.48,0,199.93,0c-15.66,0-28.35,12.69-28.35,28.35   c0,2.48,0.32,4.88,0.92,7.17C175.62,35.6,186.18,35.38,195.5,29z M200.91,42.92l-25.5-0.34c4.91,8.44,14.04,14.11,24.51,14.11   c10.46,0,19.6-5.67,24.51-14.11h-0.06L200.91,42.92z"></path>	</g></g><g>	<path class="st0" d="M18.16,14.55h8.61v16.63c0,1.65-0.26,3.21-0.77,4.67c-0.51,1.46-1.32,2.75-2.42,3.84  c-1.1,1.1-2.25,1.87-3.46,2.31c-1.68,0.62-3.69,0.93-6.04,0.93c-1.36,0-2.84-0.09-4.45-0.29c-1.61-0.19-2.95-0.57-4.03-1.13  s-2.07-1.37-2.96-2.41s-1.51-2.11-1.84-3.22C0.27,34.1,0,32.53,0,31.16V14.55h8.61v17.03c0,1.52,0.42,2.71,1.27,3.57  s2.02,1.28,3.51,1.28c1.49,0,2.65-0.42,3.49-1.27s1.27-2.04,1.27-3.59L18.16,14.55L18.16,14.55z"></path>	<path class="st0" d="M32.54,14.55h8.06L51.11,30V14.55h8.13v27.92h-8.13L40.66,27.14v15.33h-8.11L32.54,14.55L32.54,14.55z"></path>	<path class="st0" d="M65.31,14.55h8.65v27.92h-8.65V14.55z"></path>	<path class="st0" d="M78.15,29.29h11.27v6H78.15C78.15,35.29,78.15,29.29,78.15,29.29z"></path>	<path class="st0" d="M93.17,14.55h21.33v6h-12.66v4.88h10.82v5.64h-10.82v11.41h-8.66L93.17,14.55L93.17,14.55z"></path>	<path class="st0" d="M119.15,14.55h8.63V35.6h13.46v6.88h-22.09V14.55z"></path>	<path class="st0" d="M139.33,14.55h9.58l5.62,9.42l5.64-9.42h9.53l-10.86,16.22v11.69h-8.64V30.78L139.33,14.55z"></path></g></svg>